<?xml version="1.0" encoding="UTF-8"?>
<!DOCTYPE svg PUBLIC "-//W3C//DTD SVG 1.1//EN" "http://www.w3.org/Graphics/SVG/1.1/DTD/svg11.dtd">
<!-- Creator: CorelDRAW -->
<svg xmlns="http://www.w3.org/2000/svg" xml:space="preserve" width="3.1405cm" height="2.8343cm" version="1.1" style="shape-rendering:geometricPrecision; text-rendering:geometricPrecision; image-rendering:optimizeQuality; fill-rule:evenodd; clip-rule:evenodd"
viewBox="0 0 3140.5 2834.3"
 xmlns:xlink="http://www.w3.org/1999/xlink"
 xmlns:xodm="http://www.corel.com/coreldraw/odm/2003">
 <defs>
  <style type="text/css">
   <![CDATA[
    .fil0 {fill:#FF7E00}
   ]]>
  </style>
 </defs>
 <g id="Layer_x0020_1">
  <metadata id="CorelCorpID_0Corel-Layer"/>
  <path class="fil0" d="M2137.12 269.94c-400.76,-319.66 -1146.22,-174.27 -1513.67,61.95 -345.92,222.38 -712.7,681.54 -610.63,1341.05 164.14,1060.59 1493.89,1523.07 2384.38,827.29l90.51 185.05c36.1,58.2 77.47,100.22 154.62,128.17 159.62,57.83 350.14,7.67 493.61,-36.47l-2.81 -375.16 -225.78 21.28c-51.74,-222.08 -24.98,-716.55 -24.98,-955.92l-432.18 -15.43c-40.59,1046.84 -1366.6,1284.52 -1865.4,526.2 -537.96,-817.84 327.94,-1813.42 1378.1,-1341.98 -39.62,111.02 -82.25,142.65 -127.98,249.26l972.58 -28.15c-13.92,-101.05 -449.09,-758.26 -529.25,-851.81 -57.48,104.97 -49.21,179.04 -141.12,264.67z"/>
 </g>
</svg>
