<?xml version="1.0" encoding="UTF-8"?>
<!DOCTYPE svg PUBLIC "-//W3C//DTD SVG 1.1//EN" "http://www.w3.org/Graphics/SVG/1.1/DTD/svg11.dtd">
<!-- Creator: CorelDRAW -->
<svg xmlns="http://www.w3.org/2000/svg" xml:space="preserve" width="15.7174cm" height="5.8979cm" version="1.1" style="shape-rendering:geometricPrecision; text-rendering:geometricPrecision; image-rendering:optimizeQuality; fill-rule:evenodd; clip-rule:evenodd"
viewBox="0 0 15717.4 5897.9"
 xmlns:xlink="http://www.w3.org/1999/xlink"
 xmlns:xodm="http://www.corel.com/coreldraw/odm/2003">
 <defs>
  <style type="text/css">
   <![CDATA[
    .fil0 {fill:#FF7E00}
   ]]>
  </style>
 </defs>
 <g id="Layer_x0020_1">
  <metadata id="CorelCorpID_0Corel-Layer"/>
  <path class="fil0" d="M4244.9 2613.84l-487.2 0.84c-268.57,688.35 -1668.81,644.15 -1827.76,-282.95l2365.71 0c228.02,-596.26 -328.33,-1393.19 -1080.55,-1548.01 -842.5,-173.4 -1513.39,353.71 -1696.91,975.77 -249.27,844.92 344.76,1493.93 946.53,1680.83 816.95,253.73 1601.61,-240.55 1780.18,-826.48zm-2319.38 -687.95l1946.79 0c-218.21,-989.73 -1707.47,-1009.78 -1946.79,0z"/>
  <path class="fil0" d="M11161.67 935.85c-400.76,-319.66 -1146.22,-174.27 -1513.67,61.95 -345.92,222.38 -712.7,681.54 -610.63,1341.05 164.14,1060.59 1493.89,1523.07 2384.38,827.29l90.51 185.05c36.1,58.2 77.47,100.22 154.62,128.17 159.62,57.83 350.14,7.67 493.61,-36.47l-2.81 -375.16 -225.78 21.28c-51.74,-222.08 -24.98,-716.55 -24.98,-955.92l-432.18 -15.43c-40.59,1046.84 -1366.6,1284.52 -1865.4,526.2 -537.96,-817.84 327.94,-1813.42 1378.1,-1341.98 -39.62,111.02 -82.25,142.65 -127.98,249.26l972.58 -28.15c-13.92,-101.05 -449.09,-758.26 -529.25,-851.81 -57.48,104.97 -49.21,179.04 -141.12,264.67z"/>
  <path class="fil0" d="M5036.48 2613.84l-405.66 0c57.71,1148.22 1727.67,1051.72 2171.96,548.94 181.66,-205.59 249.27,-606.54 65.66,-846.95 -370.26,-484.8 -1281.38,-344.57 -1603.58,-654.3 -415.48,-399.4 488.33,-675.31 909.63,-415.62 47.13,29.05 118.33,90.48 147.01,134.57 142.55,219.11 -94.76,201.41 527.37,201.41 -100.52,-1174 -1850.16,-956.85 -2110.95,-342.52 -155.79,366.98 17.12,650.97 231.04,790.05 508.83,330.82 1550.43,203.12 1512.63,739.6 -31.98,453.8 -933.42,410.34 -1198.67,215.74 -216.34,-158.72 -121.83,-263.59 -246.44,-370.92z"/>
  <path class="fil0" d="M14658.53 752.95l-476.47 12.99 4.89 397.35 471.73 9.41c-0.15,562.57 -46.36,1355.62 9.64,1881.81 72.62,682.3 1087.98,527.66 1008.91,53.05 -707.74,0 -542.54,120.28 -542.54,-1926.8l542.52 -14.87 25.38 -404.06 -567.94 -2.77 -2.52 -764.76c-449.09,50.94 -469.95,319.99 -473.6,758.65z"/>
  <path class="fil0" d="M7717.59 761.73l-476.6 5.75 0.21 369.17 467.55 24.93c58.5,592.77 -45.26,1301.12 17.06,1891.23 72.13,683.08 1098.07,533.94 1006.11,54.75l-494.78 -23.67c-69.58,-210.66 -71.58,-1643.06 -29.97,-1925.33l551.52 -6.48 -0.26 -372.86 -564.89 -24.56 -2.82 -760.38c-457.71,59.77 -473.13,325.77 -473.13,767.45z"/>
  <path class="fil0" d="M15370.71 5202.37c-9.46,566.36 -567.02,465.33 -915.07,281.01l-145.3 213.43c264.78,272.26 1050.31,259.16 1262.05,-44.9 202.89,-291.36 126.75,-1131.21 126.75,-1547.57 -217.4,0 -297.09,-66.54 -308.78,127.69 -255.08,-112.76 -434.76,-213.96 -761.67,-87.89 -205.49,79.24 -391.63,279.76 -391.49,568.72 0.15,300.8 174.31,490.23 384.35,575.44 327.45,132.85 509.3,36.96 749.16,-85.93zm-535.73 -824.53c-492.84,145.52 -264.61,841.59 279.75,680.21 463.52,-137.42 268.05,-841.95 -279.75,-680.21z"/>
  <path class="fil0" d="M4463.26 5208.99c-15.19,710.69 -792.54,310.8 -948.09,268.98l-110.57 220.11c336.16,261.32 1012.61,271.69 1264.12,-47.72 203.46,-258.4 120.81,-1159.38 120.81,-1546.02 -409.94,0 -263.73,8.64 -339.58,136.7 -352.22,-341.1 -1140.86,-114.75 -1115.76,507.16 23.91,592.38 658.8,718.25 1129.07,460.79zm-546.78 -820.16c-513.31,177.13 -198.89,858.33 328.72,661.36 415.24,-155.02 233.86,-855.5 -328.72,-661.36z"/>
  <path class="fil0" d="M12883.54 1348.15l-17.62 -524.61c-574.46,35.21 -447.67,560.74 -447.67,1102.35 0,490.43 -31.41,1095.85 6.57,1572.22 668.23,15.8 425.06,-830.59 476.94,-1395.82 83.35,-907.93 763.23,-806.95 1007.22,-895.09l0 -427.98c-508.48,-142.3 -853.04,287.75 -1025.44,568.93z"/>
  <path class="fil0" d="M465.77 1348.15l-7.58 -524.64c-576.32,40.74 -448.76,565.72 -448.76,1102.38 0,526.21 0,1052.41 0,1578.61 706.74,-69.89 417.68,-825.39 486.21,-1432.1 94.5,-836.59 656.52,-776.92 1004.34,-854.21l0 -447.74c-587.84,-88.34 -817.43,293.14 -1034.21,577.7z"/>
  <path class="fil0" d="M1301.51 5206.73l-136.28 -184.26c-313.8,139.14 -692.29,255.52 -822.79,-168.52l1056.13 -0.77c39.06,-916.25 -1021.24,-960.04 -1315.97,-402.59 -421.35,796.91 804.41,1292.86 1218.91,756.14zm-961.28 -564.45l745.14 0c-37.46,-184.29 -131.03,-291.22 -352.43,-298.31 -246.03,-7.88 -343.48,104.12 -392.71,298.31z"/>
  <path class="fil0" d="M8850.95 5206.73l-133.96 -186.63c-309.98,152.29 -696.55,255.27 -823.01,-166.15l1058.33 0c-1.35,-1017.87 -1091.56,-881.86 -1321.73,-405.58 -411.79,852.1 847.21,1267.12 1220.37,758.36zm-959.07 -564.45l738.52 0c-80.69,-414.8 -644.42,-405.76 -738.52,0z"/>
  <path class="fil0" d="M10421.97 5206.73l-131.64 -175.38c-32.05,9.27 -657.3,372.26 -821.93,-177.4l1053.98 -3.06c37.09,-910.29 -1047.02,-962.45 -1322.85,-383.89 -384.17,805.84 784.74,1259.92 1222.44,739.73zm-955.78 -564.45l745.18 -2.64c-113.73,-390.86 -631.11,-414.78 -745.18,2.64z"/>
  <path class="fil0" d="M2033.4 4249.76l-35.76 -144.76 -303.96 4.5 0.13 1278.09 326.32 15.82c0.07,-424.67 -113.91,-1009.25 338.96,-1038.81 543.02,-35.43 282.5,652.11 366.55,1036.3l286.87 0c67.79,-247.42 49.96,-936.19 -87.66,-1115.89 -185.63,-242.41 -674.89,-267.59 -891.45,-35.25z"/>
  <path class="fil0" d="M6266.73 4249.76l-35.75 -144.76 -303.97 4.5 0.13 1278.09 326.32 15.82c0.07,-426.88 -114.7,-1009.1 338.97,-1038.81 541.17,-35.44 283.4,656.28 366.54,1036.3l285.68 0c69.08,-247.77 50.73,-937.35 -87.9,-1114.37 -185.62,-237.02 -677.46,-276.19 -890.02,-36.77z"/>
  <path class="fil0" d="M12929.81 4238.83l-20.6 -134.22 -306.2 -0.27 0.58 1296.38 326.58 -6.06c-0.19,-416.26 -116.38,-997.55 330.54,-1029.61 488,-35 356.99,616.97 356.99,1022.54l326.31 15.82c0.07,-326.17 62.12,-934.97 -129.55,-1143.23 -236.02,-256.47 -612.18,-193.56 -884.65,-21.35z"/>
  <path class="fil0" d="M11170.34 4249.76l-32.4 -71.85c-52.77,-73.19 16.53,-32.37 -75.46,-65.79 -41.56,-15.1 -187.67,-7.78 -240.45,-7.78l2.54 1296.6 301.73 -0.04c145.44,-530.48 -255.55,-941.92 485.21,-1027.47l3.09 -273.68c-213.79,-12.68 -345.27,36.77 -444.26,150.01z"/>
  <polygon class="fil0" points="11871.59,5277.28 11887.63,5401.87 12180.37,5400.9 12201.33,5277.74 12197.86,4104.34 11872.65,4104.34 "/>
  <polygon class="fil0" points="5195.26,5400.72 5389.26,5400.72 5521.94,5390.66 5521.65,4115.27 5389.43,4102.15 5195.26,4104.34 "/>
 </g>
</svg>
